Genre:Comedy
Language:English
IMDb:http://www.imdb.com/title/tt1375670/
Subtitles: ROMANA
Encoder: Tony2
..........................................
General
Complete name : Grown.Ups.2010.DVDSCR.MP4.FEEL-FREE
Format : MPEG-4
Format profile : Base Media
Codec ID : isom
File size : 688 MiB
Duration : 1h 42mn
Overall bit rate : 938 Kbps
............................................
Video
ID : 1
Format : AVC
Format/Info : Advanced Video Codec
Format profile : Main@L1.3
Format settings, CABAC : Yes
Format settings, ReFrames : 1 frame
Codec ID : avc1
Codec ID/Info : Advanced Video Coding
Duration : 1h 42mn
Bit rate mode : Variable
Bit rate : 782 Kbps
Width : 720 pixels
Height : 304 pixels
Display aspect ratio : 2.35:1
Frame rate mode : Constant
Frame rate : 29.970 fps
Resolution : 24 bits
Colorimetry : 4:2:0
Scan type : Progressive
Bits/(Pixel*Frame) : 0.119
Stream size : 573 MiB (83%)
............................................
Audio
ID : 2
Format : AAC
Format/Info : Advanced Audio Codec
Format version : Version 4
Format profile : LC
Format settings, SBR : No
Codec ID : 40
Duration : 1h 42mn
Bit rate mode : Variable
Bit rate : 152 Kbps
Channel(s) : 2 channels
Channel positions : L R
Sampling rate : 44.1 KHz
Resolution : 16 bits
Stream size : 111 MiB (16%)
............................................
Plot:
After their high school basketball coach passes away, five good friends and former teammates reunite for a Fourth of July holiday weekend
...................................................
Screens: 
http://postimg.com/image/18000/17699.jpg
..........................................................